<?xml version="1.0" encoding="UTF-8" standalone="no"?>
<!DOCTYPE svg PUBLIC "-//W3C//DTD SVG 1.1//EN" "http://www.w3.org/Graphics/SVG/1.1/DTD/svg11.dtd">
<svg width="100%" height="100%" viewBox="0 0 16 16" version="1.1" xmlns="http://www.w3.org/2000/svg" xmlns:xlink="http://www.w3.org/1999/xlink" xml:space="preserve" xmlns:serif="http://www.serif.com/" style="fill-rule:evenodd;clip-rule:evenodd;stroke-linejoin:round;stroke-miterlimit:2;">
    <g transform="matrix(0.680269,0,0,0.680269,0,0)">
        <path d="M10.06,1L10.06,6.27L10.2,6.51L15,14.68C14.959,14.774 14.893,14.854 14.807,14.911C14.722,14.968 14.622,14.999 14.52,15L1.52,15C1.411,15.007 1.302,14.98 1.209,14.922C1.116,14.865 1.043,14.78 1,14.68L5.86,6.51L6,6.27L6,1L10.12,1L10.06,1ZM10.54,0L5.54,0C4.68,0 5,1.16 5,2L5,6L0,14.48C0,14.883 0.16,15.27 0.445,15.555C0.73,15.84 1.117,16 1.52,16L14.52,16C14.916,15.99 15.293,15.825 15.569,15.541C15.846,15.257 16,14.876 16,14.48L11,6L11,2C11,1.16 11.32,0 10.48,0L10.54,0Z" style="fill:white;fill-rule:nonzero;"/>
    </g>
    <g transform="matrix(0.680269,0,0,0.680269,0,0)">
        <path d="M5.41,10L3.05,14L12.95,14L10.59,10L5.41,10Z" style="fill:white;fill-opacity:0.5;fill-rule:nonzero;"/>
    </g>
    <g transform="matrix(0.625037,0,0,0.625037,1.48914,1.99767)">
        <path d="M17.662,8.34C17.933,6.481 18.636,4.711 19.715,3.173L19.715,3.324C19.715,3.789 19.9,4.234 20.228,4.562C20.556,4.891 21.001,5.075 21.466,5.075C21.93,5.075 22.375,4.891 22.703,4.562C23.032,4.234 23.216,3.789 23.216,3.324C23.217,3.009 23.129,2.7 22.962,2.432C22.795,2.164 22.557,1.948 22.273,1.81L22.122,1.81C21.285,1.506 20.367,1.506 19.53,1.81C16.803,2.567 15.743,6.539 15.743,6.539L15.44,6.741L10.39,6.741L9.97,8.424L15.221,8.424L13.538,17.345C13.274,18.349 12.731,19.257 11.971,19.963C11.211,20.669 10.266,21.145 9.246,21.334C9.349,21.107 9.401,20.86 9.397,20.61C9.397,20.128 9.206,19.666 8.865,19.325C8.524,18.984 8.062,18.793 7.58,18.793C7.097,18.793 6.635,18.984 6.294,19.325C5.953,19.666 5.762,20.128 5.762,20.61C5.78,21.023 5.942,21.416 6.218,21.723C6.494,22.03 6.868,22.232 7.277,22.294C14.615,23.707 15.692,17.396 15.692,17.396L17.376,10.007L22.425,10.007L22.846,8.323L17.527,8.323L17.662,8.34Z" style="fill:white;fill-rule:nonzero;"/>
    </g>
</svg>
