<?xml version="1.0" encoding="UTF-8" standalone="no"?>
<!DOCTYPE svg PUBLIC "-//W3C//DTD SVG 1.1//EN" "http://www.w3.org/Graphics/SVG/1.1/DTD/svg11.dtd">
<svg width="100%" height="100%" viewBox="0 0 16 16" version="1.1" xmlns="http://www.w3.org/2000/svg" xmlns:xlink="http://www.w3.org/1999/xlink" xml:space="preserve" xmlns:serif="http://www.serif.com/" style="fill-rule:evenodd;clip-rule:evenodd;stroke-linejoin:round;stroke-miterlimit:2;">
    <path d="M6.933,10.884L1.034,10.884C0.76,10.884 0.497,10.775 0.303,10.581C0.109,10.387 0,10.125 0,9.85L3.401,4.082L3.401,1.361C3.401,0.789 3.184,0 3.769,0L7.129,0C7.701,0 7.483,0.789 7.483,1.361L7.483,4.082L8.489,5.787C8.459,5.772 8.424,5.763 8.385,5.763L7.723,5.763L6.939,4.429L6.844,4.265L6.844,0.68L4.082,0.68L4.082,4.265L3.986,4.429L0.68,9.986C0.71,10.055 0.759,10.112 0.823,10.151C0.886,10.19 0.96,10.209 1.034,10.204L6.835,10.204C6.867,10.425 6.899,10.652 6.933,10.884ZM8.676,6.104L10.884,9.85C10.884,10.12 10.779,10.379 10.591,10.572C10.403,10.765 10.147,10.877 9.878,10.884L9.488,10.884L9.372,10.204L9.878,10.204C9.947,10.203 10.015,10.182 10.073,10.143C10.131,10.105 10.176,10.05 10.204,9.986L8.979,7.901L8.726,6.42C8.715,6.325 8.701,6.211 8.676,6.104ZM6.737,9.524L2.075,9.524L3.68,6.803L5.018,6.803L5.018,6.854C5.018,6.854 6.33,6.792 6.392,7.157C6.409,7.261 6.548,8.214 6.737,9.524Z" style="fill:white;"/>
    <g transform="matrix(0.527892,0,0,0.527892,4.38638,4.38638)">
        <circle cx="18.5" cy="18.5" r="3.5" style="fill:white;"/>
    </g>
    <g transform="matrix(0.527892,0,0,0.527892,4.38638,4.38638)">
        <path d="M2,3L7.151,3C7.534,3 7.602,3.282 7.647,3.654L9.732,15.883L16.765,3.383C16.838,3.266 16.939,3.17 17.059,3.103C17.18,3.036 17.315,3 17.453,3L20.034,3L20.034,4.285C20.034,4.285 18.512,4.071 18.118,4.724L8.582,20.504C8.495,20.654 8.37,20.778 8.219,20.865C8.069,20.952 7.899,20.998 7.726,21L6.599,21C6.599,21 4.344,5.254 4.254,4.724C4.164,4.195 2,4.285 2,4.285L2,3Z" style="fill:white;fill-rule:nonzero;"/>
    </g>
</svg>
