<?xml version="1.0" encoding="UTF-8" standalone="no"?>
<!DOCTYPE svg PUBLIC "-//W3C//DTD SVG 1.1//EN" "http://www.w3.org/Graphics/SVG/1.1/DTD/svg11.dtd">
<svg width="100%" height="100%" viewBox="0 0 16 16" version="1.1" xmlns="http://www.w3.org/2000/svg" xmlns:xlink="http://www.w3.org/1999/xlink" xml:space="preserve" xmlns:serif="http://www.serif.com/" style="fill-rule:evenodd;clip-rule:evenodd;stroke-linejoin:round;stroke-miterlimit:2;">
    <g transform="matrix(0.811501,0,0,0.811501,0,0.0239017)">
        <path d="M2.487,15.358C2.251,15.743 1.827,16 1.342,16C0.601,16 0,15.399 0,14.658C0,13.917 0.601,13.315 1.342,13.315C1.477,13.315 1.608,13.335 1.731,13.372L1.731,14.231C1.731,14.789 2.02,15.203 2.487,15.358ZM4.344,10.647L4.715,10.277L3.319,8.881L3.319,7.718L4.483,7.718L8.282,11.517L8.282,12.681L7.703,12.681L7.703,11.842C7.703,11.125 7.225,10.647 6.509,10.647L4.344,10.647ZM10.682,8.404L15.519,3.158L14.698,6.141C14.223,6.282 13.926,6.69 13.926,7.246L13.926,7.419L13.796,6.34L10.833,8.404L10.682,8.404ZM13.14,0.748L16,-0.029L15.262,2.791L7.683,10.37L5.6,8.288L13.14,0.748ZM13.285,1.956L7.153,8.088L7.883,8.818L14.037,2.664L14.662,1.308L13.285,1.956ZM7.842,5.17L8.864,2.788L3.925,3.2L12.569,0.521L7.842,5.17Z" style="fill:rgb(199,199,199);"/>
    </g>
    <g>
        <g transform="matrix(0.8995,0,0,0.8995,1.60799,3.40699)">
            <path d="M12,5L12,4L8,4C7.4,4 7,4.5 7,5L7,8L4,8L4,9L7,9L7,12C7,12.6 7.5,13 8,13L12,13L12,12L8.6,12C8.3,12 8,11.7 8,11.4L8,5.6C8,5.3 8.3,5 8.6,5L12,5Z" style="fill:white;fill-opacity:0.5;fill-rule:nonzero;"/>
        </g>
        <g transform="matrix(0.8995,0,0,0.8995,1.60799,3.40699)">
            <path d="M16,3L16,5C16,5.6 15.6,6 15,6L12,6C11.4,6 11,5.6 11,5L11,3C11,2.4 11.4,2 12,2L15,2C15.6,2 16,2.4 16,3Z" style="fill:white;fill-rule:nonzero;"/>
        </g>
        <g transform="matrix(0.8995,0,0,0.8995,1.60799,3.40699)">
            <path d="M16,11L16,13C16,13.6 15.6,14 15,14L12,14C11.4,14 11,13.6 11,13L11,11C11,10.4 11.4,10 12,10L15,10C15.6,10 16,10.4 16,11Z" style="fill:white;fill-rule:nonzero;"/>
        </g>
        <g transform="matrix(0.8995,0,0,0.8995,1.60799,3.40699)">
            <path d="M5,7L5,9C5,9.6 4.6,10 4,10L1,10C0.4,10 0,9.6 0,9L0,7C0,6.4 0.4,6 1,6L4,6C4.6,6 5,6.4 5,7Z" style="fill:white;fill-rule:nonzero;"/>
        </g>
    </g>
</svg>
