<?xml version="1.0" encoding="UTF-8" standalone="no"?>
<!DOCTYPE svg PUBLIC "-//W3C//DTD SVG 1.1//EN" "http://www.w3.org/Graphics/SVG/1.1/DTD/svg11.dtd">
<svg width="100%" height="100%" viewBox="0 0 89 89" version="1.1" xmlns="http://www.w3.org/2000/svg" xmlns:xlink="http://www.w3.org/1999/xlink" xml:space="preserve" xmlns:serif="http://www.serif.com/" style="fill-rule:evenodd;clip-rule:evenodd;stroke-linejoin:round;stroke-miterlimit:2;">
    <g transform="matrix(5.55556,0,0,5.55556,0,0)">
        <g transform="matrix(0.986776,0,0,0.986776,0,0.211579)">
            <g transform="matrix(0.994983,0.994983,-0.994983,0.994983,9.41627,-7.78968)">
                <path d="M6.716,14.345L6.716,11.293L7.7,11.293L7.7,14.33C7.391,14.174 7.021,14.18 6.716,14.345Z" style="fill:rgb(199,199,199);"/>
            </g>
            <g transform="matrix(0.994983,0.994983,-0.994983,0.994983,9.41627,-7.78968)">
                <path d="M9.717,10.857L9.132,11.441L5.314,11.441L4.729,10.857L5.314,10.272L9.132,10.272L9.717,10.857Z" style="fill:rgb(128,128,128);"/>
            </g>
            <g transform="matrix(1.31501,1.31501,-1.31501,1.31501,8.29242,-11.2794)">
                <path d="M6.416,2.73L7.208,1.347L8,2.7L8,8.463L6.416,8.463L6.416,2.73ZM6.931,3.134L6.931,7.797L7.486,7.797L7.486,3.117L7.208,2.364L6.931,3.134Z" style="fill:rgb(199,199,199);"/>
            </g>
            <g transform="matrix(1.02594,0,0,1.02594,-0.972741,0.784496)">
                <path d="M3.565,13.522C3.565,14.245 2.979,14.831 2.257,14.831C1.534,14.831 0.948,14.245 0.948,13.522C0.948,12.8 1.534,12.214 2.257,12.214C2.979,12.214 3.565,12.8 3.565,13.522Z" style="fill:rgb(87,87,87);fill-opacity:0;"/>
                <path d="M3.565,13.522C3.565,14.245 2.979,14.831 2.257,14.831C1.534,14.831 0.948,14.245 0.948,13.522C0.948,12.8 1.534,12.214 2.257,12.214C2.979,12.214 3.565,12.8 3.565,13.522ZM3.094,13.522C3.094,13.06 2.719,12.685 2.257,12.685C1.795,12.685 1.419,13.06 1.419,13.522C1.419,13.984 1.795,14.36 2.257,14.36C2.719,14.36 3.094,13.984 3.094,13.522Z" style="fill:rgb(128,128,128);"/>
            </g>
            <g transform="matrix(1.11417,0,0,1.11417,-1.07146,-0.874282)">
                <path d="M8,5.425L12.243,1.252L5.604,3.382L8.917,3.287L8,5.425Z" style="fill:rgb(128,128,128);"/>
            </g>
            <g transform="matrix(0.802822,-0.465431,0.465431,0.802822,5.10704,7.85093)">
                <path d="M8,5.425L12.243,1.252L4.484,3.657L8.917,3.287L8,5.425Z" style="fill:rgb(128,128,128);"/>
            </g>
        </g>
        <g transform="matrix(5.81049e-17,-0.985152,0.985152,5.81049e-17,-0.814943,15.0408)">
            <g transform="matrix(0.943876,2.46519e-32,-2.46519e-32,0.943876,-0.486865,0.355287)">
                <path d="M8.85,5.146C8.473,3.89 8.725,2.509 9.604,1.505C10.608,0.5 11.989,0.249 13.245,0.751L11.11,2.886C10.608,3.388 10.608,4.393 11.11,4.895C11.613,5.397 12.617,5.397 13.12,4.895L15.254,2.76C15.756,4.016 15.38,5.397 14.501,6.402C13.496,7.406 12.115,7.657 10.985,7.281L8.85,5.146Z" style="fill:white;"/>
            </g>
            <g transform="matrix(0.943876,2.46519e-32,-2.46519e-32,0.943876,-0.486865,0.355287)">
                <path d="M9.98,8.034L4.581,13.433C4.581,13.936 4.455,14.564 3.953,14.94C3.2,15.694 1.818,15.694 1.065,14.94C0.312,14.187 0.312,12.806 1.065,12.052C1.567,11.55 2.07,11.424 2.697,11.424L8.097,6.025L9.98,8.034ZM3.2,12.806C2.823,12.429 2.195,12.429 1.818,12.806C1.442,13.182 1.442,13.81 1.818,14.187C2.195,14.564 2.823,14.564 3.2,14.187C3.576,13.81 3.576,13.182 3.2,12.806Z" style="fill:white;fill-rule:nonzero;"/>
            </g>
        </g>
    </g>
</svg>
