<?xml version="1.0" encoding="UTF-8" standalone="no"?>
<!DOCTYPE svg PUBLIC "-//W3C//DTD SVG 1.1//EN" "http://www.w3.org/Graphics/SVG/1.1/DTD/svg11.dtd">
<svg width="100%" height="100%" viewBox="0 0 16 16" version="1.1" xmlns="http://www.w3.org/2000/svg" xmlns:xlink="http://www.w3.org/1999/xlink" xml:space="preserve" xmlns:serif="http://www.serif.com/" style="fill-rule:evenodd;clip-rule:evenodd;stroke-linejoin:round;stroke-miterlimit:2;">
    <g transform="matrix(0.812455,0,0,0.849351,0,0.0250165)">
        <g transform="matrix(0.994983,0.994983,-0.994983,0.994983,9.41627,-7.78968)">
            <path d="M6.716,14.345L6.716,11.293L7.7,11.293L7.7,14.33C7.391,14.174 7.021,14.18 6.716,14.345Z" style="fill:rgb(199,199,199);"/>
        </g>
        <g transform="matrix(0.994983,0.994983,-0.994983,0.994983,9.41627,-7.78968)">
            <path d="M9.717,10.857L9.133,11.441L5.313,11.441L4.729,10.857L5.313,10.272L9.133,10.272L9.717,10.857Z" style="fill:rgb(128,128,128);"/>
        </g>
        <g transform="matrix(1.23084,0,0,1.17737,0,-0.0294537)">
            <path d="M6.73,5.95L5.637,5.941L10.675,0.661L12.999,0L12.4,2.396L8.991,5.968L7.905,5.96L7.911,5.953L11.404,2.287L11.913,1.136L10.793,1.686L6.734,5.946L6.73,5.95Z" style="fill:rgb(199,199,199);"/>
        </g>
        <g transform="matrix(1.02594,0,0,1.02594,-0.972741,0.784496)">
            <path d="M3.565,13.466L3.565,13.579C3.565,14.27 2.979,14.831 2.257,14.831C1.534,14.831 0.948,14.27 0.948,13.579L0.948,13.466C0.948,12.775 1.534,12.214 2.257,12.214C2.979,12.214 3.565,12.775 3.565,13.466Z" style="fill:rgb(87,87,87);fill-opacity:0;"/>
            <path d="M1.008,13.956C0.969,13.837 0.948,13.71 0.948,13.579L0.948,13.466C0.948,12.775 1.534,12.214 2.257,12.214C2.979,12.214 3.565,12.775 3.565,13.466L3.565,13.579C3.565,13.71 3.544,13.837 3.505,13.956L2.993,13.466C2.993,13.077 2.663,12.761 2.257,12.761C1.85,12.761 1.521,13.077 1.521,13.466L1.008,13.956ZM3.505,13.956C3.495,13.984 3.485,14.012 3.474,14.039L2.993,13.577L2.993,13.469L3.505,13.956ZM3.474,14.039C3.282,14.503 2.809,14.831 2.257,14.831C1.704,14.831 1.231,14.503 1.039,14.039L1.521,13.579C1.521,13.968 1.85,14.283 2.257,14.283C2.663,14.283 2.993,13.968 2.993,13.579L3.474,14.039ZM1.039,14.039C1.028,14.012 1.018,13.984 1.008,13.956L1.521,13.469L1.521,13.577L1.039,14.039Z" style="fill:rgb(128,128,128);"/>
        </g>
        <g transform="matrix(1.11417,0,0,1.11417,-1.07146,-0.874282)">
            <path d="M8,5.425L12.243,1.252L4.484,3.657L8.917,3.287L8,5.425Z" style="fill:rgb(128,128,128);"/>
        </g>
        <g transform="matrix(0.802822,-0.465431,0.465431,0.802822,5.10704,7.85093)">
            <path d="M8.6,3.978L9.148,4.296L12.243,1.252L6.788,2.943L7.581,3.399L8.917,3.287L8.6,3.978Z" style="fill:rgb(128,128,128);"/>
        </g>
    </g>
    <g transform="matrix(1,0,0,1,2.14632,2.78373)">
        <path d="M1.481,3.364L13.854,3.341L8.766,8L8.65,13.216L6.661,11.644L6.615,8L1.481,3.364Z" style="fill:rgb(201,201,201);"/>
        <path d="M1.481,3.364L13.854,3.341L8.766,8L8.65,13.216L6.661,11.644L6.615,8L1.481,3.364ZM2.238,3.654L6.81,7.784C6.871,7.838 6.906,7.915 6.907,7.996C6.907,7.996 6.951,11.501 6.951,11.501L8.372,12.624L8.474,7.994C8.476,7.914 8.51,7.839 8.569,7.785L13.102,3.634L2.238,3.654Z" style="fill:rgb(164,164,164);"/>
    </g>
</svg>
