<?xml version="1.0" encoding="UTF-8" standalone="no"?>
<!DOCTYPE svg PUBLIC "-//W3C//DTD SVG 1.1//EN" "http://www.w3.org/Graphics/SVG/1.1/DTD/svg11.dtd">
<svg width="100%" height="100%" viewBox="0 0 89 89" version="1.1" xmlns="http://www.w3.org/2000/svg" xmlns:xlink="http://www.w3.org/1999/xlink" xml:space="preserve" xmlns:serif="http://www.serif.com/" style="fill-rule:evenodd;clip-rule:evenodd;stroke-linejoin:round;stroke-miterlimit:2;">
    <g transform="matrix(5.08271,0,0,5.08271,-8.64035,-0.816341)">
        <path d="M1.7,15L1.7,14.6C1.7,10.6 4.5,8.3 8,8.3C11.5,8.3 14.3,10.6 14.3,14.6L14.3,15L1.7,15ZM8,0.2C6.1,0.2 4.6,1.7 4.6,3.6C4.6,5.5 6.1,7 8,7C9.9,7 11.4,5.5 11.4,3.6C11.4,1.7 9.9,0.2 8,0.2Z" style="fill:white;fill-rule:nonzero;"/>
    </g>
    <g transform="matrix(4.50834,0,0,4.50834,16.8679,16.8656)">
        <g transform="matrix(0.994983,0.994983,-0.994983,0.994983,9.41627,-7.78968)">
            <path d="M6.716,14.345L6.716,11.293L7.7,11.293L7.7,14.33C7.391,14.174 7.021,14.18 6.716,14.345Z" style="fill:rgb(199,199,199);"/>
        </g>
        <g transform="matrix(0.994983,0.994983,-0.994983,0.994983,9.41627,-7.78968)">
            <path d="M9.717,10.857L9.132,11.441L5.314,11.441L4.729,10.857L5.314,10.272L9.132,10.272L9.717,10.857Z" style="fill:rgb(128,128,128);"/>
        </g>
        <g transform="matrix(1.31501,1.31501,-1.31501,1.31501,8.29242,-11.2794)">
            <path d="M6.416,2.73L7.208,1.347L8,2.7L8,8.463L6.416,8.463L6.416,2.73ZM6.931,3.134L6.931,7.797L7.486,7.797L7.486,3.117L7.208,2.364L6.931,3.134Z" style="fill:rgb(199,199,199);"/>
        </g>
        <g transform="matrix(1.02594,0,0,1.02594,-0.972741,0.784496)">
            <path d="M3.565,13.522C3.565,14.245 2.979,14.831 2.257,14.831C1.534,14.831 0.948,14.245 0.948,13.522C0.948,12.8 1.534,12.214 2.257,12.214C2.979,12.214 3.565,12.8 3.565,13.522Z" style="fill:rgb(87,87,87);fill-opacity:0;"/>
            <path d="M3.565,13.522C3.565,14.245 2.979,14.831 2.257,14.831C1.534,14.831 0.948,14.245 0.948,13.522C0.948,12.8 1.534,12.214 2.257,12.214C2.979,12.214 3.565,12.8 3.565,13.522ZM2.992,13.522C2.992,13.117 2.662,12.787 2.257,12.787C1.851,12.787 1.521,13.117 1.521,13.522C1.521,13.928 1.851,14.258 2.257,14.258C2.662,14.258 2.992,13.928 2.992,13.522Z" style="fill:rgb(128,128,128);"/>
        </g>
        <g transform="matrix(1.11417,0,0,1.11417,-1.07146,-0.874282)">
            <path d="M8,5.425L12.243,1.252L4.484,3.657L8.917,3.287L8,5.425Z" style="fill:rgb(128,128,128);"/>
        </g>
        <g transform="matrix(0.802822,-0.465431,0.465431,0.802822,5.10704,7.85093)">
            <path d="M8,5.425L12.243,1.252L4.484,3.657L8.917,3.287L8,5.425Z" style="fill:rgb(128,128,128);"/>
        </g>
    </g>
</svg>
