<?xml version="1.0" encoding="UTF-8" standalone="no"?>
<!DOCTYPE svg PUBLIC "-//W3C//DTD SVG 1.1//EN" "http://www.w3.org/Graphics/SVG/1.1/DTD/svg11.dtd">
<svg width="100%" height="100%" viewBox="0 0 89 89" version="1.1" xmlns="http://www.w3.org/2000/svg" xmlns:xlink="http://www.w3.org/1999/xlink" xml:space="preserve" xmlns:serif="http://www.serif.com/" style="fill-rule:evenodd;clip-rule:evenodd;stroke-linecap:round;stroke-linejoin:round;">
    <g transform="matrix(5.55556,0,0,5.55556,0,0)">
        <g transform="matrix(0.811501,0,0,0.811501,0,0.0239017)">
            <path d="M6.898,12.46L5.694,11.256L2.82,14.13C2.667,13.667 2.294,13.305 1.826,13.166L4.715,10.277L3.319,8.881L3.319,7.718L4.483,7.718L6.898,10.133L6.898,12.46ZM6.903,9.59L5.6,8.288L13.14,0.748L16,-0.029L15.262,2.791L11.175,6.878L8.153,8.548L14.037,2.664L14.662,1.308L13.285,1.956L7.153,8.088L7.805,8.74L7.282,9.029C7.071,9.146 6.931,9.355 6.903,9.59ZM13.037,5.849L15.519,3.158L14.703,6.126L13.983,5.728C13.757,5.603 13.483,5.603 13.257,5.728L13.037,5.849ZM2.685,14.658C2.685,15.399 2.083,16 1.342,16C0.601,16 0,15.399 0,14.658C0,13.917 0.601,13.315 1.342,13.315C2.083,13.315 2.685,13.917 2.685,14.658ZM7.842,5.17L8.864,2.788L3.925,3.2L12.569,0.521L7.842,5.17Z" style="fill:rgb(199,199,199);"/>
        </g>
        <g transform="matrix(0.762577,0,0,0.762577,4.96685,4.43629)">
            <path d="M2.343,4.476L7.676,1.513C7.878,1.401 8.122,1.401 8.324,1.513L13.657,4.476C13.869,4.594 14,4.817 14,5.059L14,10.941C14,11.183 13.869,11.406 13.657,11.524L8.324,14.487C8.122,14.599 7.878,14.599 7.676,14.487L2.343,11.524C2.131,11.406 2,11.183 2,10.941L2,5.059C2,4.817 2.131,4.594 2.343,4.476Z" style="fill:none;fill-rule:nonzero;stroke:white;stroke-width:1.5px;"/>
            <path d="M8,14.333L8,8M8,8L13.667,4.852M8,8L2.333,4.852" style="fill:none;fill-rule:nonzero;stroke:white;stroke-width:1.5px;"/>
        </g>
    </g>
</svg>
