<?xml version="1.0" encoding="UTF-8" standalone="no"?>
<!DOCTYPE svg PUBLIC "-//W3C//DTD SVG 1.1//EN" "http://www.w3.org/Graphics/SVG/1.1/DTD/svg11.dtd">
<svg width="100%" height="100%" viewBox="0 0 89 89" version="1.1" xmlns="http://www.w3.org/2000/svg" xmlns:xlink="http://www.w3.org/1999/xlink" xml:space="preserve" xmlns:serif="http://www.serif.com/" style="fill-rule:evenodd;clip-rule:evenodd;stroke-linejoin:round;stroke-miterlimit:2;">
    <g transform="matrix(5.55556,0,0,5.55556,0,0)">
        <g transform="matrix(0.811501,0,0,0.811501,0,0.0239017)">
            <g transform="matrix(0.994983,0.994983,-0.994983,0.994983,9.41627,-7.78968)">
                <path d="M6.716,14.345L6.716,11.293L7.7,11.293L7.7,14.33C7.391,14.174 7.021,14.18 6.716,14.345Z" style="fill:rgb(199,199,199);"/>
            </g>
            <g transform="matrix(0.994983,0.994983,-0.994983,0.994983,9.41627,-7.78968)">
                <path d="M9.717,10.857L9.132,11.441L5.314,11.441L4.729,10.857L5.314,10.272L9.132,10.272L9.717,10.857Z" style="fill:rgb(128,128,128);"/>
            </g>
            <g transform="matrix(1.31501,1.31501,-1.31501,1.31501,8.29242,-11.2794)">
                <path d="M6.416,2.73L7.208,1.347L8,2.7L8,8.463L6.416,8.463L6.416,2.73ZM6.931,3.134L6.931,7.797L7.486,7.797L7.486,3.117L7.208,2.364L6.931,3.134Z" style="fill:rgb(199,199,199);"/>
            </g>
            <g transform="matrix(1.02594,0,0,1.02594,-0.972741,0.784496)">
                <path d="M3.565,13.522C3.565,14.245 2.979,14.831 2.257,14.831C1.534,14.831 0.948,14.245 0.948,13.522C0.948,12.8 1.534,12.214 2.257,12.214C2.979,12.214 3.565,12.8 3.565,13.522Z" style="fill:rgb(87,87,87);fill-opacity:0;"/>
                <path d="M3.565,13.522C3.565,14.245 2.979,14.831 2.257,14.831C1.534,14.831 0.948,14.245 0.948,13.522C0.948,12.8 1.534,12.214 2.257,12.214C2.979,12.214 3.565,12.8 3.565,13.522ZM2.992,13.522C2.992,13.117 2.662,12.787 2.257,12.787C1.851,12.787 1.521,13.117 1.521,13.522C1.521,13.928 1.851,14.258 2.257,14.258C2.662,14.258 2.992,13.928 2.992,13.522Z" style="fill:rgb(128,128,128);"/>
            </g>
            <g transform="matrix(1.11417,0,0,1.11417,-1.07146,-0.874282)">
                <path d="M8,5.425L12.243,1.252L4.484,3.657L8.917,3.287L8,5.425Z" style="fill:rgb(128,128,128);"/>
            </g>
            <g transform="matrix(0.802822,-0.465431,0.465431,0.802822,5.10704,7.85093)">
                <path d="M8,5.425L12.243,1.252L4.484,3.657L8.917,3.287L8,5.425Z" style="fill:rgb(128,128,128);"/>
            </g>
        </g>
        <g transform="matrix(1.11687,0,0,1.11687,-1.85628,-1.76681)">
            <g transform="matrix(0.000704439,0.583779,-0.583779,0.000704439,15.5822,6.65038)">
                <rect x="3" y="3" width="1" height="10" style="fill:white;fill-opacity:0.5;fill-rule:nonzero;"/>
            </g>
            <g transform="matrix(0.000704439,0.583779,-0.583779,0.000704439,15.5822,6.65038)">
                <path d="M5.187,12.297L12.778,4.707L12.071,4L4.48,11.59L5.187,12.297Z" style="fill:white;fill-opacity:0.5;fill-rule:nonzero;"/>
            </g>
            <g transform="matrix(0.583779,1.0842e-19,-1.0842e-19,0.583779,11.7901,6.94438)">
                <path d="M7,2.534L7,3.466C7,4.313 6.313,5 5.466,5L1.534,5C0.687,5 0,4.313 0,3.466L0,2.534C0,1.687 0.687,1 1.534,1L5.466,1C6.313,1 7,1.687 7,2.534Z" style="fill:white;"/>
            </g>
            <g transform="matrix(0.583779,1.0842e-19,-1.0842e-19,0.583779,5.95227,1.11363)">
                <path d="M7,12.534L7,13.466C7,14.313 6.313,15 5.466,15L1.534,15C0.687,15 0,14.313 0,13.466L0,12.534C0,11.687 0.687,11 1.534,11L5.466,11C6.313,11 7,11.687 7,12.534Z" style="fill:white;"/>
            </g>
            <g transform="matrix(0.583779,1.0842e-19,-1.0842e-19,0.583779,6.54238,12.1984)">
                <path d="M16,2.534L16,3.466C16,4.313 15.313,5 14.466,5L10.534,5C9.687,5 9,4.313 9,3.466L9,2.534C9,1.687 9.687,1 10.534,1L14.466,1C15.313,1 16,1.687 16,2.534Z" style="fill:white;"/>
            </g>
        </g>
    </g>
</svg>
