<?xml version="1.0" encoding="UTF-8" standalone="no"?>
<!DOCTYPE svg PUBLIC "-//W3C//DTD SVG 1.1//EN" "http://www.w3.org/Graphics/SVG/1.1/DTD/svg11.dtd">
<svg width="100%" height="100%" viewBox="0 0 89 89" version="1.1" xmlns="http://www.w3.org/2000/svg" xmlns:xlink="http://www.w3.org/1999/xlink" xml:space="preserve" xmlns:serif="http://www.serif.com/" style="fill-rule:evenodd;clip-rule:evenodd;stroke-linejoin:round;stroke-miterlimit:2;">
    <g transform="matrix(5.55556,0,0,5.55556,0,0)">
        <g transform="matrix(0.994983,0.994983,-0.994983,0.994983,9.41627,-7.78968)">
            <path d="M6.716,14.345L6.716,11.293L7.7,11.293L7.7,14.33C7.391,14.174 7.021,14.18 6.716,14.345Z" style="fill:rgb(199,199,199);"/>
        </g>
        <g transform="matrix(0.994983,0.994983,-0.994983,0.994983,9.41627,-7.78968)">
            <path d="M9.717,10.857L9.132,11.441L5.314,11.441L4.729,10.857L5.314,10.272L9.132,10.272L9.717,10.857Z" style="fill:rgb(128,128,128);"/>
        </g>
        <g transform="matrix(1.31501,1.31501,-1.31501,1.31501,8.29242,-11.2794)">
            <path d="M6.416,2.73L7.208,1.347L8,2.7L8,8.463L6.416,8.463L6.416,2.73ZM6.931,3.134L6.931,7.797L7.486,7.797L7.486,3.117L7.208,2.364L6.931,3.134Z" style="fill:rgb(199,199,199);"/>
        </g>
        <g transform="matrix(1.02594,0,0,1.02594,-0.972741,0.784496)">
            <path d="M3.565,13.522C3.565,14.245 2.979,14.831 2.257,14.831C1.534,14.831 0.948,14.245 0.948,13.522C0.948,12.8 1.534,12.214 2.257,12.214C2.979,12.214 3.565,12.8 3.565,13.522Z" style="fill:rgb(87,87,87);fill-opacity:0;"/>
            <path d="M3.565,13.522C3.565,14.245 2.979,14.831 2.257,14.831C1.534,14.831 0.948,14.245 0.948,13.522C0.948,12.8 1.534,12.214 2.257,12.214C2.979,12.214 3.565,12.8 3.565,13.522ZM3.1,13.522C3.1,13.057 2.722,12.679 2.257,12.679C1.791,12.679 1.413,13.057 1.413,13.522C1.413,13.988 1.791,14.366 2.257,14.366C2.722,14.366 3.1,13.988 3.1,13.522Z" style="fill:rgb(128,128,128);"/>
        </g>
        <g transform="matrix(1.11417,0,0,1.11417,-1.07146,-0.874282)">
            <path d="M8,5.425L12.243,1.252L4.484,3.657L8.917,3.287L8,5.425Z" style="fill:rgb(128,128,128);"/>
        </g>
        <g transform="matrix(0.802822,-0.465431,0.465431,0.802822,5.10704,7.85093)">
            <path d="M8,5.425L12.243,1.252L4.484,3.657L8.917,3.287L8,5.425Z" style="fill:rgb(128,128,128);"/>
        </g>
    </g>
</svg>
