<?xml version="1.0" encoding="UTF-8" standalone="no"?>
<!DOCTYPE svg PUBLIC "-//W3C//DTD SVG 1.1//EN" "http://www.w3.org/Graphics/SVG/1.1/DTD/svg11.dtd">
<svg width="100%" height="100%" viewBox="0 0 89 89" version="1.1" xmlns="http://www.w3.org/2000/svg" xmlns:xlink="http://www.w3.org/1999/xlink" xml:space="preserve" xmlns:serif="http://www.serif.com/" style="fill-rule:evenodd;clip-rule:evenodd;stroke-linejoin:round;stroke-miterlimit:2;">
    <g transform="matrix(5.55556,0,0,5.55556,0,0)">
        <g transform="matrix(0.740272,0,0,0.740272,-1.11022e-16,0.48901)">
            <g transform="matrix(0.994983,0.994983,-0.994983,0.994983,9.41627,-7.78968)">
                <path d="M7.423,11.293L7.7,11.548M7.7,11.548L7.7,14.33C7.391,14.174 7.021,14.18 6.716,14.345L6.716,11.293L7.423,11.293" style="fill:rgb(199,199,199);"/>
            </g>
            <g transform="matrix(0.994983,0.994983,-0.994983,0.994983,9.41627,-7.78968)">
                <path d="M7.575,11.441L5.314,11.441L4.729,10.857L5.314,10.272L6.424,10.272L7.575,11.441" style="fill:rgb(128,128,128);"/>
            </g>
            <g transform="matrix(1.35085,0,0,1.35085,1.49975e-16,-0.660581)">
                <path d="M5.153,5.617L9.727,1.043L11.844,0.467L11.298,2.555L8.207,5.646L7.285,5.649L10.391,2.461L10.854,1.457L9.834,1.937L6.115,5.613L5.153,5.617Z" style="fill:rgb(199,199,199);"/>
            </g>
            <g transform="matrix(1.02594,0,0,1.02594,-0.972741,0.784496)">
                <path d="M3.565,13.522C3.565,14.245 2.979,14.831 2.257,14.831C1.534,14.831 0.948,14.245 0.948,13.522C0.948,12.8 1.534,12.214 2.257,12.214C2.979,12.214 3.565,12.8 3.565,13.522Z" style="fill:rgb(87,87,87);fill-opacity:0;"/>
                <path d="M3.565,13.522C3.565,14.245 2.979,14.831 2.257,14.831C1.534,14.831 0.948,14.245 0.948,13.522C0.948,12.8 1.534,12.214 2.257,12.214C2.979,12.214 3.565,12.8 3.565,13.522ZM2.937,13.522C2.937,13.147 2.632,12.842 2.257,12.842C1.881,12.842 1.576,13.147 1.576,13.522C1.576,13.898 1.881,14.203 2.257,14.203C2.632,14.203 2.937,13.898 2.937,13.522Z" style="fill:rgb(128,128,128);"/>
            </g>
            <g transform="matrix(1.11417,0,0,1.11417,-1.07146,-0.874282)">
                <path d="M8,5.425L12.243,1.252L4.484,3.657L8.917,3.287L8,5.425Z" style="fill:rgb(128,128,128);"/>
            </g>
            <g transform="matrix(0.802822,-0.465431,0.465431,0.802822,5.10704,7.85093)">
                <path d="M8.676,3.941L9.079,4.174L12.243,1.252L6.881,2.891L7.602,3.31L8.917,3.287L8.676,3.941Z" style="fill:rgb(128,128,128);"/>
            </g>
        </g>
        <g transform="matrix(0.733326,0,0,0.733326,4.26678,5.73343)">
            <rect x="7" y="9" width="7" height="3" style="fill:white;fill-rule:nonzero;"/>
            <path d="M0,0L0,14L16,14L16,0L0,0ZM1,1L5,1L5,7L1,7L1,1ZM1,13L1,8L5,8L5,13L1,13ZM15,13L6,13L6,8L15,8L15,13ZM15,7L6,7L6,1L15,1L15,7Z" style="fill:rgb(137,137,137);fill-rule:nonzero;"/>
        </g>
    </g>
</svg>
